# xmcd
#
# Track frame offsets: 
#        150
#        12462
#        24017
#        36442
#        44982
#        54626
#        66065
#        75936
#        88200
#        98500
#        113823
#        127468
#        138635
#        153494
#        165807
#        179584
#        190149
#        201681
#
# Disc length: 2883 seconds
#
# Revision: 0
# Processed by: cddbd v1.5.2PL0 Copyright (c) Steve Scherf et al.
# Submitted via: ExactAudioCopy v0.99pb5
#
DISCID=000b4112
DTITLE=Various Artist - Shot of Country CD 1
DYEAR=2001
DGENRE=Country
TTITLE0=Johnny Cash - I walk The Line
TTITLE1=Freddy Fender - Before The Next teardrop Falls
TTITLE2=Kenny Rogers - Ruben James
TTITLE3=Sandy Posey - Born A Woman
TTITLE4=Ned Miller - From A Jack To A King
TTITLE5=Willie Nelson - Suffering In Silence
TTITLE6=Hank Locklin - Please Help Me I'm Falling
TTITLE7=Merle Haggard - Okie From Muskogee
TTITLE8=Dolly Parton - Release Me
TTITLE9=Bobby Bare - Leaving On A Jet Plane
TTITLE10=Wilma Burgess - Baby
TTITLE11=Don Williams - Spend Some Time With Me
TTITLE12=Roy Clarke - Yesterday When I Was Young
TTITLE13=George Jones - Take Me
TTITLE14=Flying Burrito Brothers - Another Shade Of Grey
TTITLE15=Barbara Mandrell - The Wayward Wind
TTITLE16=Patsy Cline - Waiting After Midnight
TTITLE17=Glen Campbell - Rhinestone Cowboy
EXTD=
EXTT0=
EXTT1=
EXTT2=
EXTT3=
EXTT4=
EXTT5=
EXTT6=
EXTT7=
EXTT8=
EXTT9=
EXTT10=
EXTT11=
EXTT12=
EXTT13=
EXTT14=
EXTT15=
EXTT16=
EXTT17=
PLAYORDER=
